<svg xmlns="http://www.w3.org/2000/svg" viewBox="0 0 48 48" fill="none" width="512" height="512">
  <defs>
    <linearGradient id="lg1" x1="8" y1="8" x2="40" y2="40" gradientUnits="userSpaceOnUse">
      <stop stop-color="#3B82F6"/><stop offset="1" stop-color="#22D3EE"/>
    </linearGradient>
    <radialGradient id="lgGlow" cx="50%" cy="50%" r="50%">
      <stop offset="0%" stop-color="#22D3EE" stop-opacity=".55"/>
      <stop offset="100%" stop-color="#22D3EE" stop-opacity="0"/>
    </radialGradient>
  </defs>
  <rect x="1.5" y="1.5" width="45" height="45" rx="13" fill="#16181C"/>
  <rect x="1.5" y="1.5" width="45" height="45" rx="13" fill="none" stroke="url(#lg1)" stroke-width="1" opacity=".25"/>
  <circle cx="24" cy="24" r="13" fill="url(#lgGlow)"/>
  <circle cx="24" cy="24" r="15" fill="none" stroke="url(#lg1)" stroke-width="1" opacity=".3"/>
  <circle cx="24" cy="24" r="12" fill="none" stroke="url(#lg1)" stroke-width="2.6"
          stroke-linecap="round" stroke-dasharray="44 31" transform="rotate(-40 24 24)"/>
  <path d="M24 12 A12 12 0 0 0 13.5 18.4" fill="none" stroke="#22D3EE"
        stroke-width="2.4" stroke-linecap="round" transform="rotate(-40 24 24)"/>
  <circle cx="24" cy="12" r="2.5" fill="#BFF7FF" transform="rotate(-40 24 24)"/>
  <circle cx="24" cy="24" r="6.5" fill="none" stroke="url(#lg1)" stroke-width="1.6"
          stroke-linecap="round" stroke-dasharray="14 26" opacity=".8" transform="rotate(55 24 24)"/>
  <circle cx="24" cy="17.5" r="1.7" fill="#BFF7FF" transform="rotate(55 24 24)"/>
  <circle cx="24" cy="24" r="3.4" fill="url(#lg1)"/>
</svg>
