<svg xmlns="http://www.w3.org/2000/svg" viewBox="0 0 244 244" role="img" aria-label="SyncIT logo">
  <svg x="24.50" y="0.00" width="195" height="244" viewBox="0 0 195 244"><g transform="translate(0.000000,244.000000) scale(0.100000,-0.100000)"
fill="#1E2836" stroke="none">
<path d="M939 2371 c-37 -20 -757 -454 -837 -504 l-42 -27 0 -298 c0 -163 4
-302 8 -308 4 -5 66 -46 137 -89 72 -43 275 -167 453 -277 177 -109 330 -198
339 -198 9 0 75 34 145 76 107 64 128 81 126 98 -2 16 -78 66 -303 202 -165
99 -374 225 -465 280 l-165 100 0 134 0 135 315 192 c173 106 319 193 325 193
12 0 165 -91 564 -337 172 -106 322 -193 332 -193 18 0 19 9 19 145 l0 145
-56 36 c-139 89 -845 514 -854 514 -3 0 -22 -9 -41 -19z"/>
<path d="M800 1709 c-188 -114 -199 -123 -185 -145 6 -9 226 -145 490 -303
l480 -288 5 -104 c3 -57 4 -111 2 -119 -2 -9 -65 -53 -140 -99 -75 -46 -206
-127 -291 -178 -86 -53 -162 -93 -171 -90 -9 2 -64 33 -121 69 -57 36 -241
150 -409 253 -168 103 -317 196 -332 206 -14 11 -36 19 -47 19 -20 0 -21 -4
-21 -157 0 -87 4 -163 8 -169 6 -8 352 -219 853 -520 31 -19 62 -34 68 -34 6
0 161 91 344 202 183 110 380 230 440 266 70 42 109 72 112 86 3 12 4 163 3
336 l-3 315 -78 50 c-89 57 -121 77 -462 285 -137 84 -274 167 -302 186 -29
19 -58 34 -65 34 -7 0 -87 -45 -178 -101z"/>
</g></svg>
</svg>
